{"glyphs":{"0":{"ha":874,"x_min":0,"x_max":699,"o":"m 214 974 l 489 974 q 699 683 699 701 l 699 279 l 489 0 l 214 0 l 0 279 l 0 683 q 214 974 0 704 m 279 832 l 146 642 l 146 335 q 267 161 146 319 l 279 142 l 417 142 l 557 328 l 557 646 l 421 832 l 279 832 z "},"1":{"ha":858,"x_min":72,"x_max":633,"o":"m 283 972 l 414 972 l 422 964 l 422 136 l 625 136 l 633 128 l 633 1 l 625 -6 l 81 -6 l 72 1 l 72 128 l 81 136 l 279 136 l 279 765 l 199 688 l 81 688 l 72 696 l 72 761 l 283 972 z "},"2":{"ha":871,"x_min":0,"x_max":699,"o":"m 214 974 l 489 974 l 699 764 l 699 565 l 222 142 l 690 142 l 699 133 l 699 8 l 690 0 l 8 0 l 0 8 l 0 138 l 557 626 l 557 703 l 428 832 l 271 832 q 138 690 183 749 l 8 690 l 0 699 l 0 764 l 214 974 z "},"3":{"ha":871,"x_min":0,"x_max":694,"o":"m 8 974 l 686 974 l 694 965 l 694 836 l 449 582 l 694 335 l 694 142 l 553 0 l 142 0 l 0 142 l 0 271 l 8 279 l 133 279 l 142 271 l 142 197 l 197 142 l 497 142 l 553 197 l 553 275 q 250 582 469 367 l 250 586 l 493 832 l 8 832 l 0 840 l 0 965 l 8 974 z "},"4":{"ha":881,"x_min":0,"x_max":694,"o":"m 419 972 l 617 972 l 625 964 l 625 419 l 686 419 l 694 411 l 694 282 l 686 275 l 625 275 l 625 8 l 617 0 l 492 0 l 485 8 l 485 275 l 8 275 l 0 282 l 0 407 q 138 601 0 424 l 419 972 m 182 424 l 182 419 l 485 419 l 485 824 l 182 424 z "},"5":{"ha":872,"x_min":0,"x_max":699,"o":"m 8 974 l 621 974 l 629 965 l 629 840 l 621 832 l 142 832 l 142 663 l 504 663 l 699 468 l 699 190 l 504 0 l 190 0 l 0 190 l 0 271 l 8 279 l 133 279 q 146 239 142 279 l 250 142 l 449 142 l 553 246 l 553 413 l 449 517 l 8 517 l 0 525 l 0 965 l 8 974 z "},"6":{"ha":868,"x_min":-1,"x_max":697,"o":"m 503 -1 l 189 -1 l -1 189 l -1 358 q 350 974 -1 379 l 507 974 l 274 557 l 503 557 q 697 367 621 449 l 697 189 q 503 -1 621 106 m 551 249 l 551 310 l 447 415 l 189 415 l 140 318 l 140 249 l 249 140 l 447 140 l 551 249 z "},"7":{"ha":872,"x_min":0,"x_max":696,"o":"m 8 969 l 688 969 l 696 961 l 696 840 q 165 0 696 822 l 4 0 l 4 8 l 524 825 l 524 829 l 8 829 l 0 836 l 0 961 l 8 969 z "},"8":{"ha":872,"x_min":0,"x_max":700,"o":"m 194 975 l 506 975 q 700 785 624 867 l 700 607 l 583 486 l 700 368 l 700 190 q 506 0 624 108 l 194 0 q 0 190 76 108 l 0 368 l 117 490 l 0 607 l 0 785 q 194 975 76 867 m 146 724 l 146 664 l 251 558 l 449 558 l 558 664 l 558 724 l 449 833 l 251 833 l 146 724 m 146 307 l 146 247 l 251 142 l 449 142 l 558 247 l 558 307 l 449 417 l 251 417 l 146 307 z "},"9":{"ha":871,"x_min":0,"x_max":699,"o":"m 194 975 l 508 975 l 699 785 l 699 615 q 347 0 699 594 l 190 0 l 424 417 l 194 417 q 0 607 76 525 l 0 785 q 194 975 76 868 m 146 725 l 146 664 l 250 558 l 508 558 l 557 656 l 557 725 l 449 833 l 250 833 l 146 725 z "}," ":{"ha":558,"x_min":0,"x_max":0,"o":""}," ":{"ha":558,"x_min":0,"x_max":0,"o":""},"$":{"ha":757,"x_min":-6,"x_max":624,"o":"m 369 139 l 369 -54 l 235 -54 l 235 139 l 3 139 l -6 147 l -6 276 l 3 285 l 426 285 l 482 340 l 482 361 l 426 418 l 140 418 l -6 558 l -6 696 l 140 838 l 235 838 l 235 1035 l 369 1035 l 369 838 l 546 838 l 554 829 l 554 704 l 546 696 l 196 696 l 140 636 l 140 619 l 196 558 l 482 558 l 624 418 l 624 285 l 482 139 l 369 139 z "},"&":{"ha":835,"x_min":0,"x_max":696,"o":"m 146 975 l 349 975 l 493 833 l 493 696 l 311 514 q 465 311 388 426 l 599 444 l 603 444 q 696 349 643 410 l 696 344 l 550 199 q 696 0 696 14 l 526 0 q 453 97 507 15 l 349 0 l 146 0 q 0 142 60 76 l 0 404 l 125 531 l 0 696 l 0 833 l 146 975 m 146 772 l 146 753 q 231 631 146 733 l 349 757 l 349 772 l 292 833 l 203 833 l 146 772 m 146 344 l 146 199 l 203 142 l 292 142 l 364 214 q 214 417 214 407 l 146 344 z "},"'":{"ha":388,"x_min":0,"x_max":203,"o":"m 99 786 l 11 786 l 0 797 l 0 964 l 11 975 l 190 975 l 203 964 l 203 797 l 143 590 l 43 590 l 99 786 z "},"(":{"ha":764,"x_min":136,"x_max":503,"o":"m 346 972 l 503 972 q 278 582 503 961 l 278 396 q 503 10 285 368 l 503 1 l 346 1 q 136 356 136 335 l 136 614 q 346 972 163 678 z "},")":{"ha":763,"x_min":136,"x_max":503,"o":"m 293 1 l 136 1 q 361 392 136 13 l 361 578 q 136 964 354 606 l 136 972 l 293 972 q 503 618 503 638 l 503 360 q 293 1 476 296 z "},"*":{"ha":831,"x_min":57,"x_max":638,"o":"m 281 968 l 410 968 l 418 961 l 418 785 l 590 843 l 638 710 q 465 651 638 703 l 465 643 l 567 506 l 567 494 l 461 419 l 453 419 q 347 565 369 522 l 343 565 l 246 419 l 233 419 l 128 494 l 128 506 l 225 643 l 225 651 q 57 710 63 701 q 104 843 96 835 l 272 785 l 272 961 l 281 968 z "},"+":{"ha":972,"x_min":140,"x_max":692,"o":"m 344 418 l 140 418 l 140 558 l 344 558 l 344 765 l 483 765 l 483 558 l 692 558 l 692 418 l 483 418 l 483 211 l 344 211 l 344 418 z "},",":{"ha":553,"x_min":138,"x_max":306,"o":"m 221 0 l 138 0 l 138 164 l 306 164 l 306 0 l 222 -179 l 138 -179 l 221 0 z "},"-":{"ha":696,"x_min":6,"x_max":557,"o":"m 6 415 l 6 553 l 557 553 l 557 415 l 6 415 z "},".":{"ha":553,"x_min":111,"x_max":296,"o":"m 122 179 l 285 179 l 296 168 l 296 10 l 285 0 l 122 0 l 111 10 l 111 168 l 122 179 z "},"/":{"ha":972,"x_min":42,"x_max":738,"o":"m 42 -85 l 597 1044 l 738 1044 l 182 -85 l 42 -85 z "},":":{"ha":610,"x_min":136,"x_max":340,"o":"m 147 842 l 328 842 l 340 831 l 340 658 l 328 647 l 147 647 l 136 658 l 136 831 l 147 842 m 149 329 l 328 329 l 340 318 l 340 151 l 328 140 l 149 140 l 138 151 l 138 318 l 149 329 z "},";":{"ha":415,"x_min":136,"x_max":340,"o":"m 147 842 l 328 842 l 340 831 l 340 658 l 328 647 l 147 647 l 136 658 l 136 831 l 147 842 m 236 140 l 149 140 l 138 151 l 138 318 l 149 329 l 328 329 l 340 318 l 340 151 l 281 -56 l 181 -56 l 236 140 z "},"<":{"ha":831,"x_min":0,"x_max":594,"o":"m 414 972 l 594 972 l 594 968 l 181 485 l 594 4 l 594 0 l 414 0 l 0 485 l 0 488 l 414 972 z "},"=":{"ha":974,"x_min":139,"x_max":697,"o":"m 140 254 l 140 386 l 692 386 l 692 254 l 140 254 m 139 585 l 139 721 l 697 721 l 697 585 l 139 585 z "},">":{"ha":835,"x_min":56,"x_max":650,"o":"m 236 0 l 56 0 l 56 4 l 469 488 l 56 968 l 56 972 l 236 972 l 650 488 l 650 485 l 236 0 z "},"?":{"ha":835,"x_min":0,"x_max":696,"o":"m 190 975 l 506 975 l 696 785 l 696 590 l 421 307 l 421 243 l 413 235 l 283 235 l 275 243 l 275 368 l 554 647 l 554 724 l 449 833 l 247 833 q 142 717 142 733 q 133 692 142 692 l 8 692 l 0 700 l 0 785 l 190 975 m 283 142 l 413 142 l 421 133 l 421 8 l 413 0 l 283 0 l 275 8 l 275 133 l 283 142 z "},"@":{"ha":838,"x_min":0,"x_max":699,"o":"m 210 974 l 506 974 l 699 783 l 699 283 l 690 275 l 379 275 l 275 376 l 275 594 l 379 694 l 553 694 l 553 724 l 449 832 l 271 832 l 142 703 l 142 267 l 271 142 l 690 142 l 699 133 l 699 8 l 690 0 l 210 0 l 0 210 l 0 764 l 210 974 m 421 538 l 421 436 l 436 421 l 553 421 l 553 553 l 436 553 l 421 538 z "},"A":{"ha":864,"x_min":0,"x_max":696,"o":"m 281 974 l 410 974 q 422 963 419 974 l 583 642 l 604 599 l 650 507 l 667 475 q 696 417 681 443 l 696 1 l 694 0 l 557 0 l 556 1 l 556 243 l 553 244 l 146 244 l 144 240 l 144 1 l 143 0 l 1 0 l 0 1 l 0 419 q 4 422 0 422 l 4 429 q 8 431 4 431 l 8 436 l 11 439 q 15 447 11 447 l 15 451 l 21 457 q 24 464 21 461 q 28 471 24 471 l 28 476 q 32 479 28 479 l 32 485 l 36 488 q 39 494 36 494 l 39 500 l 44 504 q 49 513 44 510 q 53 519 49 519 l 53 525 q 56 526 53 526 l 56 533 l 60 536 q 64 543 60 543 l 64 549 l 68 553 q 72 561 68 558 q 76 568 72 568 l 76 574 q 81 575 76 575 l 81 581 l 83 583 q 88 592 83 592 l 88 596 l 93 601 q 96 608 93 607 q 100 615 96 615 l 100 621 q 104 631 104 624 q 110 639 108 631 l 113 640 l 113 644 l 117 650 q 121 657 117 654 q 125 664 121 664 l 125 669 q 128 678 128 672 q 133 688 132 678 l 136 688 l 136 693 l 140 697 q 144 706 140 703 q 149 713 144 713 l 149 718 q 153 726 153 721 q 157 735 156 726 l 160 736 l 160 742 l 165 746 q 169 754 165 751 q 172 761 169 761 l 172 767 q 176 775 176 768 q 182 783 181 775 l 185 785 l 185 789 l 189 794 q 193 801 189 800 q 197 808 193 808 l 197 814 q 201 824 201 817 q 206 832 204 824 l 208 833 l 208 838 l 214 843 q 217 850 214 847 q 221 857 217 857 l 221 863 q 225 865 221 865 l 225 871 l 229 874 q 232 881 229 881 l 232 886 l 238 890 q 242 899 238 896 q 244 906 242 906 l 244 911 q 249 919 249 914 q 254 928 253 919 l 257 929 l 257 935 q 261 944 261 938 q 267 953 265 944 l 269 954 l 269 960 q 274 968 274 961 l 281 974 m 346 792 l 346 789 l 346 786 q 342 781 342 783 l 343 778 q 338 769 338 778 l 333 767 l 333 761 q 331 760 333 760 l 331 754 l 328 751 q 325 744 326 751 q 321 736 322 744 q 318 732 318 735 l 318 729 q 314 721 314 729 l 310 719 l 310 713 q 306 711 310 711 l 306 706 l 304 704 q 301 696 301 704 q 297 688 297 696 q 293 685 294 688 l 294 682 q 289 672 289 682 l 286 671 l 286 665 q 282 663 286 663 l 282 657 l 281 656 q 276 647 278 656 q 274 640 274 647 q 269 636 269 639 l 271 633 q 265 625 265 633 l 261 622 l 261 617 q 258 615 261 615 l 258 608 l 256 607 q 253 599 254 607 q 249 592 250 599 q 244 588 246 590 l 246 585 q 242 576 242 585 l 238 574 l 238 568 q 233 567 238 567 l 233 561 l 232 558 q 229 551 229 558 q 225 543 225 551 q 221 539 222 543 l 222 536 q 217 528 217 536 l 214 526 l 214 521 q 210 518 214 518 l 210 513 l 207 511 q 204 503 206 511 q 201 494 201 503 q 197 492 197 494 l 197 489 q 193 479 193 489 l 189 478 l 189 472 q 185 469 189 469 l 185 464 q 182 463 185 463 q 178 454 181 454 q 172 444 178 446 l 174 443 l 174 442 q 169 432 169 438 q 165 429 169 429 l 165 424 q 161 422 165 422 l 161 415 q 158 414 161 414 q 153 406 157 406 q 149 396 153 397 l 150 394 l 150 393 l 144 388 l 147 386 l 549 386 l 551 389 q 546 397 551 393 l 546 401 q 543 410 543 401 q 538 418 539 410 q 535 419 535 418 l 535 425 q 531 433 531 425 q 526 438 526 435 l 526 438 l 526 439 l 522 444 l 522 450 q 517 458 518 450 q 514 465 514 458 q 510 474 511 465 q 507 482 507 474 q 501 486 503 483 l 503 486 l 503 488 l 499 493 l 499 499 q 494 506 494 499 q 489 514 490 506 q 486 517 486 514 l 486 522 q 482 529 482 522 l 478 533 l 479 535 l 479 536 l 474 542 l 474 546 q 469 556 469 546 q 467 561 467 556 q 461 571 463 561 q 458 578 458 571 q 454 582 454 581 l 454 583 l 454 583 l 450 590 l 450 594 q 446 603 446 594 q 442 611 442 603 q 438 613 438 611 l 438 618 q 435 626 435 618 q 429 631 431 628 l 431 631 l 431 632 l 425 638 l 425 643 q 422 650 422 643 q 417 660 418 650 q 414 661 414 660 l 414 667 q 410 675 410 667 q 406 678 406 676 l 407 679 l 407 681 l 401 686 l 401 692 q 397 699 397 692 q 393 707 394 699 q 390 710 390 707 l 390 715 q 386 722 386 715 q 381 726 382 725 l 382 728 l 382 729 l 378 735 l 378 739 q 374 747 374 739 q 368 756 369 747 q 365 757 365 756 l 365 764 q 363 771 363 764 q 357 775 357 774 l 358 776 l 358 776 l 353 783 l 353 788 q 347 792 351 788 l 346 792 z "},"B":{"ha":868,"x_min":0,"x_max":697,"o":"m 3 975 l 510 975 l 606 878 l 674 810 q 676 806 674 806 q 697 785 693 785 l 697 606 q 679 588 679 589 q 676 583 676 588 q 664 572 674 583 q 613 519 613 522 q 582 490 610 519 l 581 490 l 581 489 q 594 476 583 489 l 638 433 l 636 432 l 636 431 q 649 418 636 429 l 688 379 l 697 371 l 697 192 l 604 99 q 592 82 604 93 l 508 0 l 503 1 l 1 1 l 0 3 l 0 144 l 1 147 l 71 147 l 72 149 l 72 832 l 6 832 q 0 835 1 832 l 0 972 l 3 975 m 215 832 l 215 561 l 450 561 q 454 565 450 565 q 471 582 454 567 l 501 614 l 506 614 q 524 632 506 615 q 554 661 553 661 l 554 728 q 532 750 553 728 q 450 832 450 831 l 215 832 m 215 415 l 215 149 l 217 147 l 449 147 l 501 200 l 506 200 l 524 218 q 554 247 553 247 l 554 313 l 547 321 q 543 324 547 322 l 506 361 l 506 363 l 500 363 l 449 415 l 215 415 z "},"C":{"ha":872,"x_min":0,"x_max":693,"o":"m 208 974 l 486 974 l 558 900 q 607 850 565 896 q 656 800 656 803 l 693 763 l 693 693 l 690 690 l 553 690 q 550 696 550 692 l 550 700 l 551 704 l 522 733 q 519 736 522 736 q 514 740 519 739 q 511 743 514 743 q 501 754 511 744 l 486 768 q 458 800 486 772 q 442 817 458 803 q 439 819 442 819 q 429 831 439 822 l 429 832 l 265 832 q 226 790 226 793 q 210 774 210 775 q 199 760 208 774 l 143 706 l 143 269 l 265 146 l 429 146 q 439 156 429 149 q 442 158 439 158 q 458 175 442 163 q 486 204 458 178 q 490 207 486 207 q 494 211 490 211 q 551 269 494 213 l 550 274 l 550 278 q 553 283 550 283 l 690 283 l 693 282 l 693 211 l 643 161 l 640 161 q 628 147 640 158 q 589 108 592 108 l 589 103 q 576 90 576 92 q 572 86 572 90 q 550 64 569 86 q 547 61 547 64 q 543 57 543 61 q 529 44 540 57 l 507 21 l 504 21 q 500 17 504 17 q 485 0 500 14 l 211 0 q 189 21 206 0 l 114 94 q 101 108 101 106 q 81 132 101 113 l 0 213 l 0 760 q 25 786 0 764 q 28 789 25 789 q 101 865 28 792 q 118 885 101 868 l 208 974 z "},"D":{"ha":949,"x_min":0,"x_max":774,"o":"m 8 972 l 565 972 q 774 688 706 800 l 774 289 q 565 0 774 269 l 8 0 l 0 8 l 0 136 l 8 144 l 68 144 l 68 832 l 8 832 l 0 840 l 0 964 l 8 972 m 208 832 l 208 144 l 501 144 l 633 333 l 633 639 q 513 811 633 654 l 501 832 l 208 832 z "},"E":{"ha":826,"x_min":0,"x_max":628,"o":"m 8 975 l 619 975 l 628 967 l 628 842 l 619 833 l 142 833 l 142 560 l 547 560 l 556 551 l 556 424 l 547 415 l 142 415 l 142 144 l 619 144 l 628 138 l 628 8 l 619 0 l 8 0 l 0 8 l 0 967 l 8 975 z "},"F":{"ha":817,"x_min":0,"x_max":626,"o":"m 8 974 l 618 974 l 626 965 l 626 840 l 618 833 l 140 833 l 140 560 l 550 560 l 558 551 l 558 422 l 550 414 l 140 414 l 140 8 l 133 0 l 8 0 l 0 8 l 0 965 l 8 974 z "},"G":{"ha":867,"x_min":0,"x_max":694,"o":"m 213 972 l 482 972 q 694 760 636 829 l 694 699 l 688 692 l 558 692 q 426 832 543 715 l 269 832 l 140 703 l 140 269 l 269 144 l 426 144 l 550 269 l 550 414 l 354 414 l 346 422 l 346 550 l 354 558 l 688 558 l 694 550 l 694 213 l 482 0 l 213 0 l 0 213 l 0 760 q 213 972 44 817 z "},"H":{"ha":872,"x_min":0,"x_max":696,"o":"m 8 974 l 136 974 l 144 965 l 144 560 l 556 560 l 556 965 l 564 974 l 688 974 l 696 965 l 696 8 l 688 0 l 564 0 l 556 8 l 556 414 l 144 414 l 144 8 l 136 0 l 8 0 l 0 8 l 0 965 l 8 974 z "},"I":{"ha":693,"x_min":69,"x_max":489,"o":"m 78 975 l 481 975 l 489 967 l 489 842 l 481 833 l 347 833 l 347 144 l 481 144 l 489 138 l 489 8 l 481 0 l 78 0 l 69 8 l 69 138 l 78 144 l 207 144 l 207 833 l 78 833 l 69 842 l 69 967 l 78 975 z "},"J":{"ha":832,"x_min":0,"x_max":697,"o":"m 286 975 l 689 975 l 697 967 l 697 842 l 689 833 l 560 833 l 560 144 l 415 0 l 144 0 l 0 144 l 0 411 l 8 419 l 138 419 l 144 411 l 144 201 l 201 144 l 358 144 l 415 201 l 415 833 l 286 833 l 278 842 l 278 967 l 286 975 z "},"K":{"ha":861,"x_min":0,"x_max":693,"o":"m 8 975 l 138 975 l 144 967 l 144 560 l 229 560 q 528 975 268 624 l 693 975 l 693 967 q 350 492 415 574 l 693 8 l 693 0 l 528 0 q 229 415 268 351 l 144 415 l 144 8 l 138 0 l 8 0 l 0 8 l 0 967 l 8 975 z "},"L":{"ha":807,"x_min":0,"x_max":622,"o":"m 8 974 l 133 974 l 140 965 l 140 144 l 614 144 l 622 136 l 622 8 l 614 0 l 8 0 l 0 8 l 0 965 l 8 974 z "},"M":{"ha":871,"x_min":0,"x_max":693,"o":"m 8 975 l 138 975 l 350 589 q 556 975 350 604 l 685 975 l 693 967 l 693 8 l 685 0 l 560 0 l 551 8 l 551 669 l 549 669 q 415 415 489 538 l 278 415 q 144 669 225 500 l 142 669 l 142 8 l 133 0 l 8 0 l 0 8 l 0 967 l 8 975 z "},"N":{"ha":867,"x_min":0,"x_max":697,"o":"m 8 975 l 138 975 q 549 286 219 849 l 551 286 l 551 967 l 560 975 l 689 975 l 697 967 l 697 8 l 689 0 l 556 0 q 144 693 524 43 l 142 693 l 142 8 l 133 0 l 8 0 l 0 8 l 0 967 l 8 975 z "},"O":{"ha":868,"x_min":0,"x_max":696,"o":"m 210 974 l 483 974 q 696 760 638 831 l 696 214 l 483 0 l 210 0 l 0 214 l 0 760 q 210 974 21 790 m 140 704 l 140 269 l 269 144 l 426 144 l 551 269 l 551 704 l 426 833 l 269 833 l 140 704 z "},"P":{"ha":863,"x_min":0,"x_max":694,"o":"m 8 971 l 501 971 q 694 779 665 821 l 694 606 l 501 414 l 140 414 l 140 8 l 132 0 l 8 0 l 0 8 l 0 964 l 8 971 m 140 831 l 140 558 l 446 558 l 550 663 l 550 722 l 446 831 l 140 831 z "},"Q":{"ha":868,"x_min":0,"x_max":697,"o":"m 214 975 l 483 975 q 697 761 639 832 l 697 331 l 568 201 l 693 8 l 693 0 l 532 0 q 467 97 467 86 l 367 0 l 214 0 l 0 214 l 0 761 q 214 975 44 818 m 144 706 l 144 269 l 269 144 l 310 144 l 383 214 l 254 411 l 254 419 l 415 419 q 483 318 464 358 l 556 390 l 556 706 l 426 833 l 269 833 l 144 706 z "},"R":{"ha":871,"x_min":0,"x_max":694,"o":"m 8 972 l 506 972 q 694 779 694 789 l 694 607 l 510 414 l 694 4 l 692 0 l 546 0 q 450 206 525 19 l 350 414 l 144 414 l 144 8 l 136 0 l 8 0 l 0 8 l 0 964 l 8 972 m 144 832 l 144 558 l 446 558 l 554 663 l 554 724 l 446 832 l 144 832 z "},"S":{"ha":874,"x_min":0,"x_max":694,"o":"m 193 972 l 506 972 q 694 779 694 789 l 694 699 l 688 692 l 563 692 q 554 728 554 692 l 446 832 l 249 832 l 144 724 l 144 663 l 249 558 l 506 558 l 694 365 l 694 193 l 506 0 l 193 0 l 0 193 l 0 274 l 8 281 l 136 281 q 149 242 144 281 l 249 144 l 446 144 l 554 249 l 554 310 l 446 414 l 193 414 l 0 607 l 0 779 l 193 972 z "},"T":{"ha":867,"x_min":0,"x_max":692,"o":"m 8 974 l 683 974 l 692 965 l 692 840 l 683 833 l 418 833 l 418 8 l 410 0 l 282 0 l 274 8 l 274 833 l 8 833 l 0 840 l 0 965 l 8 974 z "},"U":{"ha":868,"x_min":0,"x_max":693,"o":"m 8 975 l 133 975 l 142 967 l 142 269 l 265 144 l 428 144 l 551 269 l 551 967 l 560 975 l 685 975 l 693 967 l 693 214 l 483 0 l 210 0 l 0 214 l 0 967 l 8 975 z "},"V":{"ha":868,"x_min":0,"x_max":696,"o":"m 8 974 l 133 974 l 140 965 l 140 600 q 346 181 140 588 l 350 181 q 551 600 536 554 l 551 965 l 560 974 l 688 974 l 696 965 l 696 567 q 410 0 424 0 l 282 0 q 0 564 268 0 l 0 965 l 8 974 z "},"W":{"ha":868,"x_min":0,"x_max":696,"o":"m 8 974 l 133 974 l 140 965 l 140 310 l 157 221 l 161 221 l 278 463 l 278 688 l 286 696 l 410 696 l 418 688 l 418 458 q 535 225 424 428 l 551 314 l 551 965 l 560 974 l 688 974 l 696 965 l 696 297 q 615 0 632 0 l 490 0 q 350 274 479 0 l 206 0 l 76 0 q 0 293 61 0 l 0 965 l 8 974 z "},"X":{"ha":871,"x_min":0,"x_max":688,"o":"m 0 972 l 153 972 q 342 631 204 893 l 346 631 q 535 972 483 893 l 688 972 q 422 490 683 946 q 688 0 688 13 l 535 0 q 346 342 483 79 l 342 342 q 153 0 204 79 l 0 0 q 261 486 13 40 q 0 972 15 932 z "},"Y":{"ha":868,"x_min":0,"x_max":692,"o":"m 153 974 q 346 596 164 974 l 350 596 q 543 974 532 974 l 692 974 l 418 414 l 418 8 l 410 0 l 286 0 l 278 8 l 278 407 q 0 969 278 418 l 4 974 l 153 974 z "},"Z":{"ha":872,"x_min":0,"x_max":694,"o":"m 8 971 l 686 971 l 694 964 l 694 835 l 181 149 l 181 144 l 686 144 l 694 136 l 694 8 l 686 0 l 8 0 l 0 8 l 0 132 q 257 482 0 153 l 514 831 l 8 831 l 0 839 l 0 964 l 8 971 z "},"[":{"ha":418,"x_min":0,"x_max":561,"o":"m 7 1251 l 554 1251 l 561 1244 l 561 1117 l 554 1110 l 142 1110 l 142 -136 l 554 -136 l 561 -143 l 561 -271 l 554 -279 l 7 -279 l 0 -271 l 0 1244 l 7 1251 z "},"\\":{"ha":967,"x_min":42,"x_max":738,"o":"m 597 -85 l 42 1044 l 182 1044 l 738 -85 l 597 -85 z "},"]":{"ha":469,"x_min":-272,"x_max":289,"o":"m 282 -285 l -264 -285 l -272 -276 l -272 -149 l -264 -142 l 147 -142 l 147 1104 l -264 1104 l -272 1111 l -272 1239 l -264 1246 l 282 1246 l 289 1239 l 289 -276 l 282 -285 z "},"^":{"ha":826,"x_min":44,"x_max":608,"o":"m 324 972 l 326 972 q 608 693 447 860 l 608 690 l 532 614 l 529 614 l 324 813 l 124 614 l 121 614 l 44 690 l 44 693 l 324 972 z "},"_":{"ha":893,"x_min":6,"x_max":896,"o":"m 6 -228 l 6 -117 l 896 -117 l 896 -228 l 6 -228 z "},"`":{"ha":617,"x_min":1,"x_max":417,"o":"m 417 975 l 417 796 l 1 796 l 1 975 l 417 975 z "},"a":{"ha":836,"x_min":0,"x_max":696,"o":"m 93 696 l 486 696 l 628 556 l 628 149 q 696 4 628 136 l 692 0 l 543 0 q 503 76 535 0 l 499 76 l 414 0 l 144 0 l 0 144 l 0 278 l 144 418 l 486 418 l 486 494 l 426 556 l 93 556 l 85 563 l 85 688 l 93 696 m 144 221 l 144 201 l 201 144 l 358 144 l 486 269 l 486 278 l 201 278 l 144 221 z "},"b":{"ha":754,"x_min":0,"x_max":639,"o":"m 8 971 l 136 971 l 144 964 l 144 694 l 450 694 q 639 406 639 428 l 639 289 q 450 0 639 269 l 8 0 l 0 8 l 0 964 l 8 971 m 144 554 l 144 144 l 378 144 q 499 333 499 322 l 499 365 q 378 550 499 379 l 378 554 l 144 554 z "},"c":{"ha":701,"x_min":0,"x_max":554,"o":"m 189 697 l 546 697 l 554 689 l 554 564 l 546 556 l 258 556 l 142 371 l 142 335 q 258 144 142 324 l 546 144 l 554 138 l 554 8 l 546 0 l 189 0 q 0 290 0 271 l 0 407 q 189 697 6 438 z "},"d":{"ha":760,"x_min":0,"x_max":625,"o":"m 625 964 l 625 8 l 617 0 l 189 0 q 0 289 0 269 l 0 406 q 189 694 0 428 l 481 694 l 481 964 l 489 971 l 617 971 l 625 964 m 261 554 l 261 550 q 140 365 140 379 l 140 333 q 261 144 140 322 l 481 144 l 481 554 l 261 554 z "},"e":{"ha":814,"x_min":0,"x_max":667,"o":"m 189 694 l 474 694 l 667 486 l 667 285 l 658 276 l 140 276 l 140 265 l 253 144 l 601 144 l 610 136 l 610 8 l 601 0 l 189 0 l 0 213 l 0 486 q 189 694 78 579 m 140 429 l 140 418 l 522 418 l 522 429 l 414 554 l 253 554 l 140 429 z "},"f":{"ha":696,"x_min":0,"x_max":557,"o":"m 329 969 l 549 969 l 557 961 l 557 833 l 549 825 l 389 825 l 281 706 l 281 640 l 507 640 l 515 632 l 515 504 l 507 496 l 281 496 l 281 8 l 272 0 l 144 0 l 136 8 l 136 496 l 8 496 l 0 504 l 0 632 l 8 640 l 136 640 l 136 757 l 329 969 z "},"g":{"ha":763,"x_min":0,"x_max":640,"o":"m 193 699 l 633 699 l 640 690 l 640 -129 l 496 -271 l 144 -271 l 138 -262 l 138 -137 l 144 -129 l 439 -129 l 496 -74 l 496 3 l 193 3 q 0 292 0 272 l 0 408 q 193 699 0 435 m 261 558 q 140 376 222 486 l 140 336 q 261 151 140 325 l 261 147 l 496 147 l 496 558 l 261 558 z "},"h":{"ha":767,"x_min":0,"x_max":624,"o":"m 8 969 l 136 969 l 144 961 l 144 693 l 446 693 l 624 422 l 624 8 l 615 0 l 492 0 l 483 8 l 483 386 l 378 553 l 144 553 l 144 8 l 136 0 l 8 0 l 0 8 l 0 961 l 8 969 z "},"i":{"ha":589,"x_min":21,"x_max":440,"o":"m 167 978 l 292 978 l 300 969 l 300 840 l 292 832 l 167 832 l 158 840 l 158 969 l 167 978 m 29 699 l 292 699 l 300 690 l 300 146 l 433 146 l 440 138 l 440 8 l 433 0 l 29 0 l 21 8 l 21 138 l 29 146 l 158 146 l 158 557 l 29 557 l 21 565 l 21 690 l 29 699 z "},"j":{"ha":615,"x_min":3,"x_max":421,"o":"m 288 974 l 413 974 l 421 965 l 421 836 l 413 828 l 288 828 l 279 836 l 279 965 l 288 974 m 146 697 l 413 697 l 421 689 l 421 -67 l 228 -278 l 11 -278 l 3 -269 l 3 -144 l 11 -136 l 167 -136 l 279 -15 l 279 551 l 146 551 l 139 560 l 139 689 l 146 697 z "},"k":{"ha":740,"x_min":0,"x_max":610,"o":"m 8 975 l 138 975 l 144 967 l 144 419 l 167 419 l 421 697 l 610 697 l 610 693 l 294 346 q 610 4 332 321 l 610 0 l 421 0 l 167 278 l 144 278 l 144 8 l 138 0 l 8 0 l 0 8 l 0 967 l 8 975 z "},"l":{"ha":611,"x_min":28,"x_max":449,"o":"m 36 979 l 303 979 l 311 971 l 311 146 l 440 146 l 449 138 l 449 8 l 440 0 l 36 0 l 28 8 l 28 138 l 36 146 l 165 146 l 165 833 l 36 833 l 28 842 l 28 971 l 36 979 z "},"m":{"ha":899,"x_min":0,"x_max":751,"o":"m 8 700 l 619 700 q 751 482 632 700 l 751 8 l 743 0 l 618 0 l 610 8 l 610 418 l 535 558 l 449 558 l 449 8 l 440 0 l 311 0 l 303 8 l 303 558 l 142 558 l 142 8 l 133 0 l 8 0 l 0 8 l 0 692 l 8 700 z "},"n":{"ha":768,"x_min":0,"x_max":626,"o":"m 8 696 l 447 696 l 626 433 l 626 8 l 618 0 l 490 0 l 482 8 l 482 394 l 379 551 l 379 556 l 140 556 l 140 8 l 133 0 l 8 0 l 0 8 l 0 688 l 8 696 z "},"o":{"ha":832,"x_min":0,"x_max":688,"o":"m 190 701 l 493 701 q 688 410 672 453 l 688 292 q 493 0 688 272 l 190 0 q 0 292 0 272 l 0 410 q 190 701 6 440 m 264 560 l 142 376 l 142 336 q 264 146 142 325 l 424 146 q 542 336 542 326 l 542 369 q 424 556 542 381 l 424 560 l 264 560 z "},"p":{"ha":764,"x_min":1,"x_max":640,"o":"m 1 -267 l 1 689 l 10 696 l 451 696 q 640 407 640 426 l 640 292 q 451 1 640 268 l 146 1 l 146 -267 l 138 -275 l 10 -275 l 1 -267 m 379 143 l 379 146 q 500 331 500 317 l 500 364 q 379 551 500 375 l 146 551 l 146 143 l 379 143 z "},"q":{"ha":763,"x_min":1,"x_max":640,"o":"m 632 -275 l 504 -275 l 496 -267 l 496 1 l 190 1 q 1 292 1 268 l 1 407 q 190 696 1 426 l 632 696 l 640 689 l 640 -267 l 632 -275 m 496 143 l 496 551 l 263 551 q 142 364 142 375 l 142 331 q 263 146 142 317 l 263 143 l 496 143 z "},"r":{"ha":718,"x_min":28,"x_max":561,"o":"m 36 699 l 165 699 l 174 690 l 174 565 l 178 565 q 360 699 344 699 l 553 699 l 561 690 l 561 565 l 553 557 l 404 557 q 174 392 392 557 l 174 8 l 165 0 l 36 0 l 28 8 l 28 690 l 36 699 z "},"s":{"ha":778,"x_min":0,"x_max":629,"o":"m 146 699 l 551 699 l 560 690 l 560 565 l 551 557 l 201 557 l 146 497 l 146 481 l 201 419 l 488 419 l 629 279 l 629 146 l 488 0 l 8 0 l 0 8 l 0 138 l 8 146 l 432 146 l 488 201 l 488 222 l 432 279 l 146 279 l 0 419 l 0 557 l 146 699 z "},"t":{"ha":735,"x_min":28,"x_max":583,"o":"m 172 975 l 297 975 l 306 967 l 306 697 l 521 697 l 528 689 l 528 564 l 521 556 l 306 556 l 306 265 l 418 144 l 576 144 l 583 138 l 583 8 l 576 0 l 354 0 l 165 214 l 165 556 l 36 556 l 28 564 l 28 689 l 36 697 l 165 697 l 165 967 l 172 975 z "},"u":{"ha":800,"x_min":0,"x_max":661,"o":"m 8 693 l 132 693 l 140 685 l 140 276 q 257 144 140 267 l 325 144 l 453 268 l 453 685 l 461 693 l 585 693 l 593 685 l 593 149 q 661 4 593 136 l 657 0 l 508 0 q 469 76 501 0 l 465 76 l 385 0 l 189 0 l 0 201 l 0 685 l 8 693 z "},"v":{"ha":793,"x_min":0,"x_max":700,"o":"m 146 700 q 222 522 158 700 l 349 210 l 351 210 q 550 700 538 685 l 692 700 l 696 696 l 700 696 l 417 0 l 283 0 q 194 210 269 3 l 0 696 l 4 700 l 146 700 z "},"w":{"ha":835,"x_min":0,"x_max":701,"o":"m 8 701 l 133 701 l 142 693 l 142 203 l 178 167 q 283 564 275 558 l 414 564 q 519 167 428 564 l 524 167 l 556 203 l 556 693 l 564 701 l 693 701 l 701 693 l 701 146 l 556 0 l 436 0 l 353 325 l 349 325 l 265 0 l 142 0 l 0 146 l 0 693 l 8 701 z "},"x":{"ha":796,"x_min":0,"x_max":646,"o":"m 0 697 l 158 697 l 324 467 q 488 697 475 690 l 646 697 l 646 693 l 404 346 q 646 8 478 253 l 646 0 l 488 0 q 324 233 399 118 l 322 233 l 158 0 l 0 0 l 0 8 l 239 346 l 0 689 l 0 697 z "},"y":{"ha":842,"x_min":3,"x_max":704,"o":"m 149 696 q 226 517 161 696 l 351 206 l 356 206 q 554 696 543 681 l 697 696 l 700 692 l 704 692 l 315 -278 l 311 -282 l 11 -282 l 3 -274 l 3 -147 l 11 -139 l 210 -139 q 275 14 219 -133 l 3 692 l 7 696 l 149 696 z "},"z":{"ha":694,"x_min":0,"x_max":560,"o":"m 7 694 l 553 694 l 560 686 l 560 558 l 197 144 l 553 144 l 560 136 l 560 8 l 553 0 l 7 0 l 0 8 l 0 140 l 363 554 l 7 554 l 0 563 l 0 686 l 7 694 z "},"{":{"ha":668,"x_min":0,"x_max":519,"o":"m 381 1250 l 513 1250 l 519 1243 l 519 1114 l 513 1107 l 439 1107 l 311 982 l 311 601 l 194 482 l 311 365 l 311 -11 l 439 -135 l 513 -135 l 519 -143 l 519 -271 l 513 -279 l 381 -279 l 167 -69 l 167 311 l 0 482 l 0 486 l 167 660 l 167 1036 l 381 1250 z "},"|":{"ha":485,"x_min":140,"x_max":281,"o":"m 281 1178 l 281 -200 l 140 -200 l 140 1178 l 281 1178 z "},"}":{"ha":692,"x_min":0,"x_max":519,"o":"m 353 1036 l 353 660 l 519 486 l 519 482 l 353 311 l 353 -69 l 140 -279 l 8 -279 l 0 -271 l 0 -143 l 8 -135 l 82 -135 l 210 -11 l 210 365 l 326 482 l 210 601 l 210 982 l 82 1107 l 8 1107 l 0 1114 l 0 1243 l 8 1250 l 140 1250 l 353 1036 z "},"~":{"ha":833,"x_min":-3,"x_max":831,"o":"m 208 681 l 617 444 l 828 564 l 831 560 l 831 411 q 617 286 831 396 l 204 518 l 1 403 l -3 407 l -3 556 q 208 681 -3 568 z "},"¨":{"ha":696,"x_min":158,"x_max":575,"o":"m 289 949 q 270 919 289 932 q 232 907 251 907 l 215 907 q 177 919 196 907 q 158 949 158 932 l 158 1001 q 177 1030 158 1018 q 215 1042 196 1042 l 232 1042 q 270 1030 251 1042 q 289 1001 289 1018 l 289 949 m 575 949 q 557 919 575 932 q 519 907 539 907 l 501 907 q 463 919 482 907 q 444 949 444 932 l 444 1001 q 463 1030 444 1018 q 501 1042 482 1042 l 519 1042 q 557 1030 539 1042 q 575 1001 575 1018 l 575 949 z "},"°":{"ha":836,"x_min":142,"x_max":557,"o":"m 265 972 l 429 972 l 557 849 l 557 681 l 429 557 l 265 557 l 142 681 l 142 849 l 265 972 m 246 804 l 246 725 l 306 665 l 389 665 l 449 725 l 449 804 l 389 864 l 306 864 l 246 804 z "},"–":{"ha":969,"x_min":6,"x_max":904,"o":"m 6 419 l 6 553 l 904 553 l 904 419 l 6 419 z "},"•":{"ha":701,"x_min":138,"x_max":417,"o":"m 138 279 l 138 553 l 417 553 l 417 279 l 138 279 z "},"#":{"ha":1096,"x_min":14,"x_max":903,"o":"m 525 976 l 528 972 l 532 972 l 469 771 l 603 771 q 657 953 611 771 l 665 972 l 668 976 l 801 976 l 804 972 l 808 972 l 750 771 l 896 771 l 899 767 l 903 767 q 857 626 867 626 l 715 626 q 629 350 707 622 l 779 350 l 782 346 l 786 346 q 736 210 746 210 l 594 210 q 544 39 586 210 q 525 0 533 0 l 396 0 l 392 4 l 389 4 l 447 210 l 314 210 q 264 39 306 210 q 244 0 253 0 l 117 0 l 113 4 l 108 4 l 171 210 l 22 210 l 18 214 l 14 214 q 61 350 50 350 l 206 350 q 288 626 214 356 l 142 626 l 139 631 l 135 631 q 181 771 171 771 l 322 771 q 389 972 333 785 l 392 976 l 525 976 m 325 350 l 454 350 q 540 626 461 356 l 407 626 q 325 350 400 624 z "},"!":{"ha":625,"x_min":135,"x_max":346,"o":"m 339 979 l 342 975 l 346 975 q 310 275 318 315 l 175 275 q 151 669 161 275 l 135 975 l 139 979 l 339 979 m 175 142 l 306 142 l 314 133 l 314 7 l 306 -1 l 175 -1 l 167 7 l 167 133 l 175 142 z "},"\"":{"ha":715,"x_min":0,"x_max":540,"o":"m 99 786 l 11 786 l 0 797 l 0 964 l 11 975 l 190 975 l 203 964 l 203 797 l 143 590 l 43 590 l 99 786 m 436 788 l 349 788 l 338 799 l 338 965 l 349 976 l 528 976 l 540 965 l 540 799 l 481 592 l 381 592 l 436 788 z "},"±":{"ha":968,"x_min":140,"x_max":694,"o":"m 143 74 l 143 214 l 694 214 l 694 74 l 143 74 m 344 557 l 140 557 l 140 697 l 344 697 l 344 904 l 483 904 l 483 697 l 692 697 l 692 557 l 483 557 l 483 350 l 344 350 l 344 557 z "},"%":{"ha":835,"x_min":0,"x_max":696,"o":"m 85 969 l 197 969 l 282 885 l 282 772 l 197 688 l 85 688 l 0 772 l 0 885 l 85 969 m 539 969 l 692 969 q 157 0 692 951 l 4 0 q 539 969 4 18 m 499 278 l 611 278 l 696 193 l 696 85 l 611 0 l 499 0 l 414 85 l 414 193 l 499 278 z "},"Ø":{"ha":0,"x_min":56,"x_max":879,"o":"m 760 975 l 879 975 l 879 965 q 739 758 739 776 q 854 468 854 660 q 764 242 854 363 q 463 100 635 100 q 282 146 397 100 l 282 140 l 176 0 l 56 0 l 56 10 q 196 221 196 200 q 81 513 81 307 q 247 810 81 671 q 443 875 351 875 l 472 875 q 654 835 561 875 q 760 975 654 849 m 192 513 l 192 478 q 267 301 192 372 l 583 744 q 472 769 507 769 q 217 613 313 769 q 192 513 192 553 m 668 679 l 357 242 l 357 231 l 457 211 q 654 282 575 211 q 744 468 744 372 l 744 507 q 674 679 744 585 l 668 679 z "},"´":{"ha":0,"x_min":0,"x_max":203,"o":"m 99 786 l 11 786 l 0 797 l 0 964 l 11 975 l 190 975 l 203 964 l 203 797 l 143 590 l 43 590 l 99 786 z "}}}
